<?xml version="1.0" standalone="no"?>
<!DOCTYPE svg PUBLIC "-//W3C//DTD SVG 20010904//EN"
 "http://www.w3.org/TR/2001/REC-SVG-20010904/DTD/svg10.dtd">
<svg version="1.0" xmlns="http://www.w3.org/2000/svg"
 width="371.000000pt" height="371.000000pt" viewBox="0 0 371.000000 371.000000"
 preserveAspectRatio="xMidYMid meet">
<metadata>
Created by potrace 1.11, written by Peter Selinger 2001-2013
</metadata>
<g transform="translate(0.000000,371.000000) scale(0.100000,-0.100000)"
fill="#000000" stroke="none">
<path d="M2170 3314 c-83 -30 -137 -80 -177 -164 -34 -70 -36 -170 -4 -243 60
-138 221 -211 369 -165 167 51 257 249 185 409 -27 59 -92 125 -149 151 -62
27 -167 33 -224 12z"/>
<path d="M1425 2946 c-89 -25 -156 -81 -197 -163 -33 -68 -33 -188 0 -255 97
-197 358 -234 501 -72 129 147 83 383 -93 469 -61 30 -150 39 -211 21z"/>
<path d="M2964 2944 c-99 -29 -190 -123 -210 -217 -38 -183 88 -357 269 -371
173 -14 312 108 324 284 10 142 -78 264 -217 303 -63 18 -107 18 -166 1z"/>
<path d="M902 2590 c-18 -3 -48 -18 -68 -34 -101 -80 -79 -232 41 -282 46 -19
81 -17 131 5 110 50 127 212 29 280 -40 27 -88 39 -133 31z"/>
<path d="M2435 2587 c-121 -39 -158 -183 -72 -275 85 -91 245 -51 277 69 35
128 -82 246 -205 206z"/>
<path d="M2063 2391 c-67 -41 -63 -150 6 -185 63 -33 132 -11 157 50 18 44 8
88 -28 125 -36 35 -87 39 -135 10z"/>
<path d="M485 2351 c-40 -24 -53 -41 -59 -76 -13 -71 37 -130 111 -129 87 1
136 97 88 171 -30 46 -95 62 -140 34z"/>
<path d="M1070 2146 c-132 -34 -226 -157 -222 -291 2 -89 21 -139 76 -202 85
-97 241 -127 356 -68 101 51 158 137 168 250 16 204 -178 363 -378 311z"/>
<path d="M3294 2134 c-80 -32 -127 -77 -166 -154 -31 -65 -32 -187 0 -251 72
-145 242 -213 388 -153 160 65 233 251 160 406 -68 145 -236 212 -382 152z"/>
<path d="M470 2009 c-59 -24 -100 -85 -102 -152 -3 -181 253 -231 317 -62 53
136 -80 268 -215 214z"/>
<path d="M2708 2000 c-108 -57 -113 -215 -9 -281 158 -101 331 84 221 237 -44
61 -141 81 -212 44z"/>
<path d="M75 1960 c-36 -14 -71 -57 -73 -91 -10 -133 170 -173 213 -48 30 84
-57 170 -140 139z"/>
<path d="M2364 1954 c-59 -28 -80 -99 -47 -155 57 -96 205 -56 205 56 0 82
-84 135 -158 99z"/>
<path d="M483 1554 c-30 -15 -63 -65 -63 -97 0 -37 23 -75 59 -95 122 -69 231
99 117 182 -38 27 -71 30 -113 10z"/>
<path d="M2064 1501 c-67 -41 -64 -150 5 -186 91 -47 187 28 161 125 -20 72
-99 102 -166 61z"/>
<path d="M859 1427 c-150 -79 -96 -306 72 -309 107 -1 189 95 167 196 -12 55
-44 95 -92 117 -55 25 -94 24 -147 -4z"/>
<path d="M2435 1443 c-32 -8 -84 -52 -101 -84 -75 -146 93 -304 232 -218 136
84 92 288 -66 303 -25 3 -54 2 -65 -1z"/>
<path d="M1415 1343 c-137 -41 -228 -178 -211 -318 13 -110 70 -191 170 -242
75 -38 179 -38 257 0 139 69 203 216 158 364 -48 154 -217 243 -374 196z"/>
<path d="M2968 1346 c-197 -54 -284 -292 -168 -461 53 -77 129 -122 220 -129
181 -14 330 121 330 300 0 197 -191 342 -382 290z"/>
<path d="M2212 978 c-109 -19 -198 -98 -231 -203 -46 -147 19 -298 158 -367
63 -31 185 -31 252 -1 102 46 169 147 174 261 9 195 -161 344 -353 310z"/>
</g>
</svg>
